<?xml version="1.0" standalone="no"?>
<!DOCTYPE svg PUBLIC "-//W3C//DTD SVG 20010904//EN"
 "http://www.w3.org/TR/2001/REC-SVG-20010904/DTD/svg10.dtd">
<svg version="1.0" xmlns="http://www.w3.org/2000/svg"
 width="400.000000pt" height="400.000000pt" viewBox="0 0 400.000000 400.000000"
 preserveAspectRatio="xMidYMid meet">
<metadata>
Created by potrace 1.11, written by Peter Selinger 2001-2013
</metadata>
<g transform="translate(0.000000,400.000000) scale(0.100000,-0.100000)"
fill="#000000" stroke="none">
<path d="M0 3975 c0 -30 11 -32 33 -7 23 25 21 32 -8 32 -20 0 -25 -5 -25 -25z"/>
<path d="M80 3984 c0 -14 9 -15 78 -8 42 5 114 8 159 6 51 -1 83 2 83 8 0 6
-59 10 -160 10 -141 0 -160 -2 -160 -16z"/>
<path d="M595 3990 c28 -12 45 -12 45 0 0 6 -15 10 -32 9 -28 0 -30 -2 -13 -9z"/>
<path d="M650 3991 c0 -13 31 -36 49 -37 9 -1 53 -2 99 -3 66 -1 82 -4 82 -16
0 -12 16 -15 80 -15 47 0 80 4 80 10 0 6 7 10 15 10 10 0 15 7 13 18 -2 10 3
17 12 17 9 0 14 -7 12 -17 -2 -11 3 -18 13 -18 8 0 15 7 15 15 0 8 9 15 20 15
11 0 20 7 20 15 0 13 -35 15 -255 15 -140 0 -255 -4 -255 -9z"/>
<path d="M1293 3979 c3 -10 1 -17 -4 -13 -5 3 -9 0 -9 -5 0 -6 -12 -11 -27
-11 -24 1 -25 2 -10 11 24 14 21 31 -5 27 -13 -2 -22 -9 -20 -16 1 -6 -3 -12
-9 -12 -6 0 -9 -9 -6 -20 3 -13 0 -20 -9 -20 -8 0 -14 -7 -14 -15 0 -8 -7 -15
-16 -15 -12 0 -15 -7 -12 -30 3 -18 0 -31 -9 -34 -7 -3 -13 -12 -13 -20 0 -8
-12 -21 -27 -28 -19 -9 -30 -24 -36 -50 -6 -25 -15 -38 -25 -38 -33 -1 -56
-29 -57 -68 0 -20 -4 -43 -8 -49 -5 -9 -3 -13 7 -13 9 0 13 -6 10 -14 -3 -8 7
-26 23 -40 l28 -26 73 79 c40 44 89 90 110 103 42 26 103 88 96 99 -2 4 3 10
12 13 8 3 13 2 9 -3 -7 -12 15 -19 38 -13 11 3 16 10 12 20 -4 12 1 14 31 9
29 -5 34 -4 24 8 -9 11 -7 13 12 11 38 -4 98 -27 98 -37 0 -5 9 -9 20 -9 11 0
20 7 20 15 0 17 17 20 22 4 2 -5 21 -11 43 -12 28 -1 48 -10 67 -29 14 -15 29
-24 33 -20 4 4 -2 -9 -14 -28 -27 -44 -29 -69 -4 -49 15 13 16 12 11 -8 -4
-16 -2 -23 8 -23 8 0 14 -5 14 -11 0 -8 5 -7 16 2 10 8 18 9 22 3 4 -6 28 -21
55 -34 26 -13 47 -27 47 -32 0 -9 0 -8 11 -57 7 -31 6 -33 -17 -28 -38 7 -18
-6 37 -24 41 -14 49 -14 45 -3 -3 8 -3 14 0 14 9 0 54 -53 54 -64 0 -8 2 -8 8
0 8 12 42 15 42 3 0 -4 -10 -11 -21 -14 -15 -5 -18 -10 -10 -15 7 -4 11 -13 9
-21 -2 -7 7 -18 20 -24 12 -5 25 -18 28 -27 3 -10 10 -18 15 -18 6 0 17 -6 24
-12 31 -28 43 -37 73 -52 36 -18 43 -31 12 -21 -16 5 -19 3 -13 -10 3 -10 2
-20 -3 -24 -15 -10 -36 -80 -28 -92 4 -8 3 -9 -5 -5 -8 6 -8 1 0 -18 15 -33 5
-60 -21 -53 -14 4 -21 -2 -29 -24 -9 -27 -31 -41 -31 -19 0 6 -5 10 -11 10 -8
0 -10 -17 -5 -57 6 -52 5 -56 -8 -38 -12 17 -12 11 1 -40 8 -33 19 -65 24 -71
4 -5 6 -19 3 -30 -3 -12 3 -29 15 -43 12 -13 21 -30 21 -38 0 -8 4 -12 9 -9
11 7 21 -17 21 -50 0 -41 31 -163 44 -177 7 -7 16 -48 19 -91 6 -68 5 -77 -9
-72 -8 3 -12 2 -9 -4 11 -17 18 -123 8 -117 -5 4 -10 -7 -10 -24 0 -16 3 -25
7 -18 4 6 10 -5 14 -26 4 -20 15 -44 24 -53 10 -10 26 -34 35 -54 14 -29 25
-39 52 -44 33 -6 51 -27 39 -46 -4 -6 2 -8 16 -3 13 4 33 2 46 -6 22 -11 27
-10 60 22 19 18 46 58 60 88 14 30 37 66 51 80 l25 26 -7 -70 c-4 -38 -13 -80
-21 -92 -7 -12 -10 -24 -6 -27 4 -2 40 -4 80 -4 50 0 81 -5 97 -16 51 -34 96
-12 135 64 23 46 25 86 6 156 -14 55 -11 97 8 112 25 20 60 21 90 2 30 -19 81
-73 81 -88 2 -19 17 -52 25 -52 5 0 18 12 29 26 30 38 29 131 -1 200 -24 54
-70 95 -111 99 -34 4 -34 4 -40 19 -7 17 12 15 68 -8 81 -34 102 -59 121 -142
21 -97 8 -225 -27 -254 -3 -3 -31 -44 -63 -92 -32 -48 -68 -97 -80 -110 -33
-34 -76 -69 -76 -61 0 3 -8 -1 -17 -9 -23 -20 -208 -145 -251 -169 -88 -50
-232 -2 -232 77 0 18 -4 35 -8 38 -16 10 -29 -59 -27 -151 0 -77 4 -97 21
-120 45 -60 149 -66 223 -13 35 25 50 30 101 30 61 0 84 9 139 55 45 37 72 64
70 67 -5 7 13 48 21 48 5 0 2 -16 -6 -35 -18 -43 -18 -46 1 -39 11 5 13 2 9
-10 -4 -9 -1 -16 6 -16 7 0 10 -7 6 -15 -3 -8 0 -15 6 -15 7 0 6 -5 -2 -15 -7
-8 -9 -15 -5 -15 4 0 2 -7 -5 -15 -10 -12 -10 -18 -1 -29 10 -12 8 -15 -11
-19 -20 -4 -19 -4 6 -6 19 -1 27 -5 23 -15 -3 -7 -2 -17 3 -22 19 -19 -9 -93
-52 -135 l-43 -41 45 31 44 31 21 -20 c20 -21 20 -21 1 -36 -11 -8 -15 -14 -8
-14 6 0 9 -7 5 -16 -5 -13 -2 -15 13 -10 16 5 19 0 21 -35 3 -53 20 -77 38
-53 10 14 18 9 63 -42 28 -32 54 -55 58 -51 4 4 -3 15 -14 26 -52 44 -5 36 73
-13 62 -38 125 -101 125 -124 0 -14 2 -15 9 -2 11 17 2 72 -13 82 -8 5 -7 8 1
8 24 0 0 30 -48 61 -26 18 -46 36 -43 40 3 5 -7 9 -21 9 -15 0 -24 4 -20 10 3
5 -1 10 -9 10 -9 0 -16 5 -16 11 0 5 4 7 10 4 5 -3 19 -1 32 6 17 9 24 9 32
-3 14 -19 37 -12 29 9 -4 11 -2 14 5 9 8 -5 12 0 12 13 0 27 15 34 34 15 9 -8
20 -13 25 -9 6 3 18 -4 29 -15 16 -18 21 -18 31 -6 6 8 20 12 29 9 12 -3 18 2
19 15 1 16 -4 18 -38 15 -40 -4 -46 1 -28 27 9 13 10 12 5 -2 -3 -10 -1 -18 4
-18 6 0 10 7 10 15 0 8 5 15 10 15 6 0 10 -4 10 -10 0 -5 5 -10 12 -10 6 0 -1
13 -16 29 -27 28 -24 49 4 30 25 -15 30 -10 26 21 -3 28 -2 30 14 15 21 -19
34 -19 27 -1 -3 7 1 23 9 35 19 27 58 22 62 -7 4 -27 18 -28 25 -3 3 13 17 22
42 27 20 3 41 15 48 25 8 14 15 15 30 7 15 -8 18 -17 13 -41 -6 -31 -6 -31 13
-11 10 11 22 30 25 42 6 18 11 20 27 12 13 -8 19 -7 19 0 0 6 4 9 8 6 5 -3 25
0 45 6 l37 11 0 1064 0 1063 -23 0 c-13 0 -29 6 -36 13 -10 10 -11 7 -6 -14 5
-19 2 -28 -9 -32 -8 -3 -18 -2 -21 3 -9 15 -25 12 -25 -5 0 -8 -9 -15 -19 -15
-23 0 -40 22 -23 28 20 6 13 20 -8 15 -10 -3 -32 4 -47 15 l-28 20 -30 -25
c-28 -23 -28 -24 -6 -18 20 6 23 4 18 -10 -4 -9 -7 -18 -7 -20 0 -2 -12 3 -27
11 -16 7 -34 14 -40 14 -7 0 -13 5 -13 11 0 6 -9 8 -21 4 -14 -5 -25 -2 -30 6
-14 22 -11 29 11 29 11 0 20 -5 20 -10 0 -6 11 -8 27 -4 21 6 25 4 20 -9 -9
-25 18 -10 33 17 8 16 18 22 31 19 24 -7 24 9 1 30 -17 16 -19 15 -35 -17 -16
-34 -17 -34 -53 -24 -43 12 -77 38 -48 38 14 0 14 2 3 16 -12 14 -14 14 -25 0
-6 -9 -17 -16 -25 -16 -11 0 -11 2 1 10 13 9 13 12 -3 24 -10 8 -20 24 -22 37
-3 12 -10 26 -16 30 -7 4 -9 15 -5 25 7 18 8 18 22 -1 15 -19 16 -19 29 -2 12
17 15 17 39 -10 14 -15 26 -23 26 -17 0 7 -7 17 -15 24 -8 7 -15 22 -14 34 0
11 3 15 6 8 3 -9 13 -6 35 9 23 17 27 24 16 30 -9 6 -7 9 10 9 12 0 22 -4 22
-10 0 -5 5 -10 11 -10 6 0 9 6 6 14 -3 8 0 19 6 24 9 8 13 0 15 -29 2 -31 -1
-39 -15 -39 -13 0 -14 -3 -6 -11 9 -9 16 -7 29 6 15 14 19 15 23 4 2 -8 7 -16
12 -19 4 -3 1 -23 -7 -45 -7 -22 -14 -48 -14 -57 0 -23 18 -32 35 -18 12 10
16 9 21 -4 9 -25 25 -19 19 7 -3 12 1 36 9 51 l15 29 3 -43 c2 -28 8 -45 18
-47 13 -4 13 -3 1 5 -13 9 -13 18 -1 66 14 58 18 64 37 45 13 -13 5 40 -9 58
-5 7 -7 17 -4 22 4 5 1 13 -5 16 -6 4 -8 18 -5 31 4 16 1 26 -12 33 -13 7 -17
20 -16 54 1 38 -2 47 -21 55 -18 8 -26 8 -35 -4 -7 -8 -18 -14 -26 -14 -7 0
-19 -12 -26 -27 -7 -14 -22 -31 -33 -37 -11 -6 -24 -17 -28 -24 -6 -9 -18 -11
-33 -8 -22 6 -23 5 -12 -13 7 -11 9 -23 5 -27 -11 -11 -86 -13 -93 -3 -3 5 3
9 13 9 21 1 63 29 45 31 -7 1 -18 2 -24 3 -7 1 -23 -4 -35 -12 -20 -12 -24
-12 -28 1 -4 8 -17 15 -29 15 -13 0 -36 8 -52 19 -16 10 -38 24 -49 29 -20 11
-48 55 -40 63 3 2 13 -3 22 -11 10 -8 25 -15 33 -15 8 -1 24 -4 35 -8 13 -4 8
5 -17 28 -21 21 -31 38 -25 40 7 2 9 8 5 12 -3 4 -14 3 -23 -3 -20 -11 -87 9
-93 28 -3 8 2 10 16 6 11 -4 29 -2 40 5 16 10 26 7 63 -18 24 -16 43 -35 41
-42 -1 -7 2 -10 8 -6 5 3 10 -1 10 -9 0 -9 5 -16 11 -16 17 0 1 52 -21 72 -11
9 -20 20 -20 24 0 4 5 3 12 -4 15 -15 48 -16 48 -1 0 6 7 9 15 5 8 -3 15 -2
15 3 0 5 -68 9 -150 10 -127 2 -151 0 -156 -14 -8 -20 -77 -20 -94 0 -11 13
-66 15 -381 15 -225 0 -370 -4 -374 -10 -4 -6 -15 -6 -31 1 -16 5 -228 9 -541
8 -502 -1 -515 -1 -510 -20z m897 7 c0 -2 -9 -6 -20 -9 -11 -3 -18 -1 -14 4 5
9 34 13 34 5z m282 -20 c21 -4 40 -12 44 -18 5 -8 1 -9 -12 -4 -10 4 -40 12
-67 17 -26 6 -45 15 -41 20 3 5 12 5 22 0 9 -4 34 -11 54 -15z m-384 7 c-10
-2 -26 -2 -35 0 -10 3 -2 5 17 5 19 0 27 -2 18 -5z m507 -43 c13 -6 15 -9 5
-9 -8 0 -22 4 -30 9 -18 12 -2 12 25 0z m-581 -9 c3 -4 -6 -6 -19 -3 -14 2
-25 6 -25 8 0 8 39 4 44 -5z m76 -10 c25 -7 25 -7 3 -13 -13 -3 -23 -2 -23 2
0 5 -10 11 -22 13 -19 4 -20 4 -3 5 11 0 31 -3 45 -7z m175 -11 c-3 -5 -14
-10 -23 -9 -14 0 -13 2 3 9 27 11 27 11 20 0z m1065 -11 l25 -20 -32 16 c-18
8 -33 18 -33 20 0 10 16 4 40 -16z m-965 -9 c13 -6 15 -9 5 -9 -8 0 -22 4 -30
9 -18 12 -2 12 25 0z m-183 -12 c-9 -9 -15 -9 -24 0 -9 9 -7 12 12 12 19 0 21
-3 12 -12z m-1005 -20 c-3 -8 -6 -5 -6 6 -1 11 2 17 5 13 3 -3 4 -12 1 -19z
m2663 -26 c0 -12 -23 -32 -37 -32 -11 0 -11 4 -1 20 13 20 38 28 38 12z m-360
-46 c0 -2 3 -13 7 -23 7 -17 6 -17 -11 0 -10 9 -22 14 -28 11 -6 -4 -5 -10 3
-15 8 -5 10 -9 4 -9 -5 1 -18 7 -28 15 -18 13 -17 14 5 18 35 7 48 7 48 3z
m334 -18 c-5 -7 -1 -9 13 -6 16 4 19 2 15 -14 -4 -15 -7 -17 -13 -6 -7 10 -9
10 -9 1 0 -18 -49 -16 -57 2 -8 23 2 28 20 10 21 -20 26 -19 20 5 -3 12 0 20
6 20 7 0 9 -5 5 -12z m-2697 -4 c-3 -3 -12 -4 -19 -1 -8 3 -5 6 6 6 11 1 17
-2 13 -5z m2668 -63 c3 -6 -3 -9 -14 -8 -11 0 -17 5 -15 9 7 11 22 10 29 -1z
m-290 -11 c-3 -5 -13 -10 -21 -10 -8 0 -12 5 -9 10 3 6 13 10 21 10 8 0 12 -4
9 -10z m306 -110 c5 0 9 -7 9 -15 0 -9 -6 -12 -15 -9 -9 4 -15 17 -14 33 1 17
3 20 6 9 2 -10 9 -18 14 -18z m-28 -30 c3 -11 1 -18 -4 -14 -5 3 -9 12 -9 20
0 20 7 17 13 -6z m-1819 -45 c3 -8 1 -15 -4 -15 -6 0 -10 7 -10 15 0 8 2 15 4
15 2 0 6 -7 10 -15z m80 0 c3 -9 0 -15 -8 -15 -7 0 -13 7 -13 15 0 8 4 15 8
15 4 0 9 -7 13 -15z m126 -38 c0 -8 -7 -14 -15 -14 -8 0 -16 6 -19 14 -3 8 2
13 14 13 11 0 20 -6 20 -13z m1636 -61 c15 -13 22 -26 17 -29 -9 -6 -48 19
-48 31 0 4 -4 6 -8 4 -5 -1 -6 2 -2 8 9 14 13 13 41 -14z m-1633 -43 c4 -3 -5
-14 -21 -23 -28 -18 -52 -11 -52 16 0 14 60 20 73 7z m8 -43 c10 -6 19 -18 20
-28 0 -10 3 -12 6 -4 7 17 33 15 33 -3 0 -10 -10 -15 -27 -15 -34 1 -63 21
-63 44 0 19 4 20 31 6z m976 -156 c-3 -3 -12 -4 -19 -1 -8 3 -5 6 6 6 11 1 17
-2 13 -5z m-64 -11 c-7 -2 -19 -2 -25 0 -7 3 -2 5 12 5 14 0 19 -2 13 -5z
m-812 -67 c2 -24 1 -42 -2 -40 -9 5 -16 84 -8 84 4 0 9 -20 10 -44z m592 -203
c-7 -2 -19 -2 -25 0 -7 3 -2 5 12 5 14 0 19 -2 13 -5z m-130 -20 c-7 -2 -21
-2 -30 0 -10 3 -4 5 12 5 17 0 24 -2 18 -5z m320 -170 c-13 -2 -33 -2 -45 0
-13 2 -3 4 22 4 25 0 35 -2 23 -4z m50 -20 c-7 -2 -21 -2 -30 0 -10 3 -4 5 12
5 17 0 24 -2 18 -5z m-80 -70 c-7 -2 -19 -2 -25 0 -7 3 -2 5 12 5 14 0 19 -2
13 -5z m-786 -185 c-3 -8 -6 -5 -6 6 -1 11 2 17 5 13 3 -3 4 -12 1 -19z m713
-18 c0 -5 -2 -10 -4 -10 -3 0 -8 5 -11 10 -3 6 -1 10 4 10 6 0 11 -4 11 -10z
m37 4 c-3 -3 -12 -4 -19 -1 -8 3 -5 6 6 6 11 1 17 -2 13 -5z m-583 -389 c3 -8
1 -15 -4 -15 -6 0 -10 7 -10 15 0 8 2 15 4 15 2 0 6 -7 10 -15z m1366 -700 c0
-14 -4 -25 -9 -25 -6 0 -8 36 -2 48 5 10 11 -2 11 -23z m-32 -32 c-2 -10 -8
-17 -13 -16 -6 1 -16 -4 -23 -9 -9 -8 -16 -8 -24 0 -9 9 -8 12 4 12 9 0 18 7
22 15 8 21 38 19 34 -2z m112 7 c0 -5 -4 -10 -10 -10 -5 0 -10 5 -10 10 0 6 5
10 10 10 6 0 10 -4 10 -10z m-377 -160 c-3 -11 -13 -20 -22 -20 -14 0 -14 2
-1 10 12 8 10 10 -10 10 -19 0 -21 3 -11 9 8 5 21 7 29 3 11 -4 13 -1 7 8 -5
8 -4 11 3 7 5 -4 8 -16 5 -27z"/>
<path d="M3150 3990 c18 -12 47 -13 53 -2 3 4 -11 8 -31 9 -27 2 -33 0 -22 -7z"/>
<path d="M3940 3992 c0 -5 6 -17 14 -27 12 -16 16 -17 30 -6 26 22 19 41 -14
41 -16 0 -30 -4 -30 -8z"/>
<path d="M3977 3893 c-4 -3 -7 -17 -7 -30 0 -12 -5 -23 -10 -23 -6 0 -4 -13 5
-29 26 -52 35 -46 35 23 0 61 -6 76 -23 59z"/>
<path d="M3480 3850 c0 -5 5 -10 10 -10 6 0 10 5 10 10 0 6 -4 10 -10 10 -5 0
-10 -4 -10 -10z"/>
<path d="M1727 3703 c-4 -3 -7 -13 -7 -22 1 -13 3 -13 11 2 11 19 8 33 -4 20z"/>
<path d="M1796 3585 c-8 -22 -8 -22 9 -22 17 0 18 6 6 25 -7 11 -10 10 -15 -3z"/>
<path d="M3645 3520 c-3 -5 -1 -10 4 -10 6 0 11 5 11 10 0 6 -2 10 -4 10 -3 0
-8 -4 -11 -10z"/>
<path d="M3770 3486 c0 -9 7 -16 16 -16 9 0 14 5 12 12 -6 18 -28 21 -28 4z"/>
<path d="M3862 3460 c7 -11 20 -20 28 -19 10 0 11 2 3 6 -7 2 -13 11 -13 19 0
8 -7 14 -15 14 -13 0 -13 -3 -3 -20z"/>
<path d="M2020 3373 c0 -5 5 -15 10 -23 7 -12 9 -10 7 8 -1 19 -17 33 -17 15z"/>
<path d="M880 3250 c-17 -24 -20 -38 -15 -70 4 -22 10 -40 15 -40 14 0 28 25
28 50 -1 14 3 40 7 58 10 41 -6 42 -35 2z"/>
<path d="M2070 2930 c0 -5 5 -10 11 -10 5 0 7 5 4 10 -3 6 -8 10 -11 10 -2 0
-4 -4 -4 -10z"/>
<path d="M960 2857 c0 -16 -54 -28 -78 -17 -20 9 -27 7 -37 -6 -11 -16 -12
-15 -19 2 -7 19 -8 19 -22 0 -8 -11 -14 -14 -14 -8 0 19 -28 14 -40 -7 -5 -11
-10 -35 -10 -54 0 -31 -4 -35 -39 -46 -48 -14 -65 -8 -89 33 -23 38 -74 52
-132 36 -19 -5 -59 -11 -89 -14 -49 -4 -55 -7 -66 -34 -18 -42 -52 -64 -79
-50 -11 6 -27 18 -36 27 -12 14 -32 16 -112 13 l-98 -3 0 -193 0 -193 133 -7
c72 -3 148 -9 167 -11 19 -3 74 -7 122 -9 l88 -5 47 42 c69 60 212 204 261
262 l41 50 28 -34 c15 -18 38 -58 50 -88 32 -78 59 -99 248 -196 53 -27 97
-37 110 -27 7 6 20 7 29 4 10 -4 22 0 30 11 9 13 21 16 41 12 42 -8 57 0 42
24 -9 15 -8 21 8 34 11 9 31 13 45 10 91 -18 184 -25 190 -15 4 6 20 15 36 19
l29 8 -30 12 c-16 7 -37 18 -45 26 -8 7 -24 15 -35 18 -15 4 -14 5 7 6 34 1
46 20 24 37 -10 7 -15 18 -11 23 3 6 -12 28 -34 49 -23 21 -41 46 -41 55 0 11
-8 17 -22 18 -22 1 -22 1 2 9 l25 8 -27 1 c-16 1 -28 5 -28 10 0 5 -9 7 -21 4
-15 -4 -29 3 -49 26 -18 19 -35 29 -44 25 -10 -4 -18 0 -22 10 -3 9 -12 16
-19 16 -7 0 -18 7 -25 15 -7 8 -16 12 -21 9 -9 -5 -50 14 -60 28 -14 21 -309
45 -309 25z"/>
<path d="M2231 2344 c0 -11 3 -14 6 -6 3 7 2 16 -1 19 -3 4 -6 -2 -5 -13z"/>
<path d="M0 2189 c0 -53 2 -60 18 -55 9 2 98 7 197 11 99 4 190 9 203 12 28 6
32 52 5 52 -10 0 -52 5 -93 11 -111 16 -239 30 -287 30 l-43 0 0 -61z"/>
<path d="M970 2201 c37 -70 -14 -124 -132 -141 -27 -3 -48 -4 -48 0 0 3 -23 7
-50 8 -28 1 -72 7 -98 13 -58 14 -112 17 -112 7 0 -16 -28 -7 -54 17 -29 27
-34 17 -10 -24 18 -31 65 -63 116 -80 33 -11 98 -70 98 -89 0 -4 -8 -28 -17
-54 -16 -46 -16 -49 3 -85 12 -23 34 -45 55 -56 30 -14 38 -24 43 -57 4 -26
12 -40 21 -40 8 0 15 -5 15 -11 0 -6 -8 -8 -17 -5 -22 7 -36 -2 -52 -31 -20
-38 -14 -45 31 -38 58 10 96 14 235 21 l121 7 25 -27 c13 -14 29 -26 34 -26 5
0 18 -9 28 -20 10 -11 25 -20 34 -21 10 0 8 -3 -6 -9 -22 -9 -29 -32 -25 -82
1 -10 -2 -18 -7 -18 -5 0 -7 -8 -4 -19 7 -26 47 -42 89 -35 27 4 35 2 32 -8
-3 -7 -14 -14 -26 -16 -13 -2 -19 -8 -16 -17 3 -8 12 -11 20 -8 16 6 19 -13 3
-22 -7 -5 -5 -13 5 -24 14 -16 14 -19 -4 -39 -12 -12 -26 -22 -31 -22 -6 0 -9
-7 -6 -15 4 -8 2 -17 -2 -19 -5 -3 -6 -16 -4 -29 4 -20 -1 -25 -39 -37 -24 -8
-48 -21 -54 -29 -6 -8 -16 -11 -22 -7 -8 4 -12 0 -12 -11 -1 -16 -2 -16 -10
-1 -10 16 -50 14 -50 -2 0 -5 -9 -6 -20 -3 -11 3 -20 0 -20 -6 0 -12 -48 -5
-64 10 -5 4 -17 4 -27 -1 -12 -7 -19 -5 -23 6 -4 9 -13 14 -21 10 -10 -3 -15
1 -15 12 0 14 -2 14 -9 3 -12 -19 -65 -18 -85 2 -9 8 -16 18 -16 21 0 3 -13
19 -29 35 -23 24 -30 27 -35 15 -11 -29 17 -119 40 -128 8 -3 14 -12 14 -21 0
-9 7 -27 16 -40 9 -13 12 -30 8 -36 -4 -7 -3 -9 4 -5 12 7 35 -27 26 -37 -7
-7 27 -67 38 -67 4 0 5 7 1 16 -4 12 -2 15 8 12 8 -3 13 -12 11 -22 -2 -9 4
-16 14 -16 11 0 15 -6 11 -20 -6 -23 8 -27 17 -5 3 8 10 15 17 15 6 0 9 -7 5
-15 -4 -10 6 -17 34 -25 28 -8 38 -15 34 -25 -6 -16 26 -22 40 -8 10 10 66 10
59 1 -2 -5 0 -8 6 -8 5 0 11 10 13 23 4 21 5 21 18 -5 14 -30 30 -37 30 -14 0
8 11 17 24 20 19 5 23 11 19 27 -5 16 -8 18 -15 7 -7 -9 -8 -7 -3 7 4 11 10
28 12 38 3 9 11 17 19 17 7 0 16 5 20 12 4 7 3 8 -4 4 -8 -5 -12 1 -12 18 0
14 -5 28 -11 32 -8 4 -7 9 2 15 19 12 32 11 24 -1 -10 -16 11 -11 26 6 10 12
24 15 56 10 73 -10 92 -39 123 -199 12 -62 33 -89 137 -174 30 -25 76 -81 111
-135 33 -51 65 -98 70 -104 10 -11 27 -56 24 -64 -1 -3 -17 -50 -37 -105 -19
-55 -35 -101 -35 -102 0 -2 83 -3 184 -3 l183 0 -5 28 c-3 15 -10 30 -15 34
-6 3 -12 16 -14 28 -2 12 -9 28 -16 35 -33 37 -38 47 -34 58 8 21 -29 58 -50
51 -11 -3 -14 -2 -7 3 6 4 13 18 16 30 5 20 2 23 -23 23 -16 0 -29 5 -29 10 0
6 7 10 15 10 24 0 17 16 -12 29 -27 12 -27 13 -8 27 18 14 18 14 -2 14 -26 0
-41 19 -23 30 9 5 9 9 1 14 -15 10 -14 56 2 56 9 0 8 3 -2 9 -10 7 -11 10 0
16 9 6 6 11 -10 17 -12 4 -19 12 -16 18 3 5 1 10 -4 10 -6 0 -10 5 -9 12 2 6
-8 14 -22 18 -17 4 -24 12 -22 26 9 62 12 59 -53 56 -68 -4 -123 16 -103 36 7
7 18 12 26 12 7 0 10 5 7 10 -3 6 0 10 9 10 18 0 76 -32 76 -42 0 -5 10 -8 23
-8 15 0 18 3 9 8 -10 7 -9 15 3 39 11 22 13 38 6 56 -8 20 -6 29 9 42 10 9 20
27 22 39 2 11 10 21 18 21 8 0 23 13 33 28 9 15 27 32 40 37 12 5 16 9 10 9
-18 1 -16 21 1 21 8 0 27 12 43 28 17 15 51 37 77 49 25 13 46 27 46 32 0 5
10 13 22 17 23 7 63 51 63 69 0 5 7 13 15 17 12 5 11 7 -4 7 -15 1 -16 4 -6
16 7 8 8 15 2 15 -5 0 -12 9 -15 20 -5 20 -37 29 -37 10 0 -5 5 -10 11 -10 6
0 4 -7 -5 -15 -19 -19 -50 -20 -43 -1 3 8 -2 17 -11 21 -13 5 -14 8 -3 14 9 6
0 11 -26 15 -21 4 -45 17 -54 28 -16 20 -16 20 -27 -11 -8 -21 -17 -31 -32
-31 -14 0 -19 4 -15 13 4 6 -1 3 -9 -7 -16 -19 -16 -19 -16 2 0 13 -6 22 -15
22 -7 0 -19 8 -24 18 -6 9 -11 11 -11 5 0 -7 -8 -13 -18 -13 -13 0 -18 7 -18
21 1 12 -5 24 -11 26 -8 3 -13 -5 -13 -21 0 -16 -6 -26 -15 -26 -18 0 -19 12
-4 27 8 8 7 11 -2 10 -8 0 -23 1 -34 2 -15 1 -17 3 -6 10 19 12 5 31 -24 31
-17 0 -25 -7 -28 -22 -4 -20 -4 -19 -6 5 -1 22 -6 27 -26 27 -19 0 -25 5 -25
23 0 12 -4 18 -8 12 -4 -5 -23 -11 -42 -12 -21 -2 -42 -11 -52 -23 -19 -23
-53 -28 -45 -6 9 23 -21 28 -33 6 -13 -24 -40 -26 -40 -4 0 19 -39 53 -61 54
-10 0 -16 -7 -15 -17 1 -13 -8 -19 -28 -21 -20 -3 -27 0 -24 10 3 7 -1 19 -8
26 -9 9 -11 20 -4 37 5 13 7 34 5 47 -2 13 -6 45 -10 72 -4 28 -15 71 -26 98
-10 26 -20 63 -21 80 -1 18 -7 40 -14 48 -17 21 -96 170 -89 170 3 0 -5 17
-18 38 -13 20 -26 44 -29 53 -14 38 -80 129 -94 129 -11 0 -12 -4 -4 -19z m75
-199 c37 -124 74 -200 107 -220 18 -11 33 -33 44 -64 25 -77 11 -92 -21 -20
-15 34 -32 62 -37 62 -6 0 -8 -7 -4 -15 3 -8 2 -14 -2 -13 -4 1 -20 -4 -35
-10 -16 -7 -33 -12 -38 -12 -5 0 -9 -7 -9 -15 0 -9 -9 -15 -23 -15 -27 0 -118
26 -162 45 -49 23 -153 55 -175 55 -25 0 -27 27 -2 34 10 4 33 19 50 34 18 15
50 40 72 56 22 17 74 67 116 113 42 46 80 81 84 78 5 -3 21 -45 35 -93z m253
-663 c-2 -6 -7 -10 -11 -10 -4 1 -14 1 -22 1 -8 0 -15 5 -15 10 0 6 12 10 26
10 14 0 24 -5 22 -11z m-438 -517 c0 -13 -12 -22 -22 -16 -10 6 -1 24 13 24 5
0 9 -4 9 -8z"/>
<path d="M1 1928 c-1 -76 1 -138 4 -138 3 0 33 11 67 25 95 37 172 53 288 60
122 8 140 12 140 30 0 18 -17 23 -120 36 -62 8 -97 8 -119 1 -22 -8 -42 -7
-78 4 -26 8 -57 12 -69 10 -11 -3 -37 -1 -57 5 -31 8 -37 15 -42 47 -12 68
-13 58 -14 -80z"/>
<path d="M2564 1824 c-22 -32 -7 -52 26 -34 15 8 19 15 12 22 -6 6 -8 17 -5
24 9 24 -16 15 -33 -12z"/>
<path d="M1343 1497 c-3 -5 0 -14 6 -20 8 -8 11 -8 11 1 0 7 7 12 15 12 8 0
15 4 15 9 0 12 -39 10 -47 -2z"/>
<path d="M720 1421 c0 -32 6 -55 16 -65 10 -10 14 -29 12 -52 -3 -42 7 -50 67
-52 38 -2 46 2 65 28 29 41 23 59 -30 94 -25 17 -60 45 -78 63 -19 18 -38 33
-43 33 -5 0 -9 -22 -9 -49z"/>
<path d="M3778 1247 c-7 -8 -20 -16 -28 -19 -9 -3 -3 -8 17 -15 28 -10 30 -9
26 8 -4 15 -2 18 12 13 12 -5 16 -3 13 6 -6 20 -24 23 -40 7z"/>
<path d="M3640 1208 c0 -9 -10 -24 -22 -32 -20 -14 -21 -18 -7 -31 14 -14 17
-12 31 18 10 22 13 39 7 48 -7 11 -9 11 -9 -3z"/>
<path d="M3440 1040 c-11 -7 -11 -10 -2 -10 7 0 10 -4 7 -10 -3 -5 1 -10 9
-10 9 0 16 9 16 20 0 22 -7 25 -30 10z"/>
<path d="M1246 833 c-6 -14 -5 -15 5 -6 7 7 10 15 7 18 -3 3 -9 -2 -12 -12z"/>
<path d="M3555 800 c-3 -5 1 -10 10 -10 9 0 13 5 10 10 -3 6 -8 10 -10 10 -2
0 -7 -4 -10 -10z"/>
<path d="M3586 751 c9 -17 17 -31 19 -31 8 0 -9 40 -21 51 -10 8 -10 3 2 -20z"/>
<path d="M1243 759 c3 -9 0 -22 -6 -28 -6 -6 -8 -13 -5 -17 12 -12 27 31 16
47 -8 12 -9 11 -5 -2z"/>
<path d="M3490 429 c0 -5 5 -7 10 -4 6 3 10 8 10 11 0 2 -4 4 -10 4 -5 0 -10
-5 -10 -11z"/>
<path d="M3985 427 c-4 -10 -5 -21 -1 -24 10 -10 18 4 13 24 -4 17 -4 17 -12
0z"/>
<path d="M2315 119 c-4 -6 -5 -12 -2 -15 2 -3 7 2 10 11 7 17 1 20 -8 4z"/>
<path d="M3946 123 c-11 -11 -6 -23 9 -23 8 0 15 4 15 9 0 13 -16 22 -24 14z"/>
<path d="M3950 45 c0 -8 5 -15 10 -15 6 0 10 7 10 15 0 8 -4 15 -10 15 -5 0
-10 -7 -10 -15z"/>
<path d="M3880 19 c0 -5 5 -7 10 -4 6 3 10 8 10 11 0 2 -4 4 -10 4 -5 0 -10
-5 -10 -11z"/>
</g>
</svg>
